<?xml version="1.0" encoding="UTF-8" standalone="no"?>
<svg
   xmlns:dc="http://purl.org/dc/elements/1.1/"
   xmlns:cc="http://creativecommons.org/ns#"
   xmlns:rdf="http://www.w3.org/1999/02/22-rdf-syntax-ns#"
   xmlns:svg="http://www.w3.org/2000/svg"
   xmlns="http://www.w3.org/2000/svg"
   viewBox="0 0 1000 500"
   height="500"
   width="1000"
   id="svg815"
   version="1.1">
  <metadata
     id="metadata821">
    <rdf:RDF>
      <cc:Work
         rdf:about="">
        <dc:format>image/svg+xml</dc:format>
        <dc:type
           rdf:resource="http://purl.org/dc/dcmitype/StillImage" />
        <dc:title></dc:title>
      </cc:Work>
    </rdf:RDF>
  </metadata>
  <defs
     id="defs819" />
  <path
     id="path4639"
     d="m 534.37297,77.352706 c -0.26716,2.057598 -3.6798,26.535154 -15.19922,26.535154 v 0.006 H 495.75188 472.33 v -0.006 c -11.43589,0 -14.88012,-24.104119 -15.1914,-26.470701 A 169.42009,169.42009 0 0 0 340.59758,174.95622 V 84.288253 c 0,-3.291405 -2.65,-5.941406 -5.94141,-5.941406 h -6.36718 c -3.29141,0 -5.94141,2.650001 -5.94141,5.941406 v 97.980467 c -5.83612,3.06953 -9.80469,9.17712 -9.80469,16.25391 v 64.9375 c 0,10.17554 8.1936,18.36719 18.36914,18.36719 H 331.33 A 169.42009,169.42009 0 0 0 495.83586,411.57146 169.42009,169.42009 0 0 0 660.35149,281.82732 h 0.61328 c 10.17554,0 18.36914,-8.19165 18.36914,-18.36719 v -64.9375 c 0,-7.4729 -4.42728,-13.86024 -10.80469,-16.73437 V 84.288253 c 0,-3.291405 -2.65,-5.941406 -5.94141,-5.941406 h -6.36718 c -3.29141,0 -5.94141,2.650001 -5.94141,5.941406 V 173.02458 A 169.42009,169.42009 0 0 0 534.37297,77.352706 Z M 396.44914,128.61638 h 0.86719 c 25.35118,23.50347 55.65556,43.80664 98.62109,43.80664 42.96553,0 73.26992,-20.30317 98.6211,-43.80664 h 0.86718 a 151.03531,151.03531 0 0 1 43.51172,65.3418 v 50.97461 c -28.07691,14.15069 -50.65312,31.87146 -65.38672,54.68359 h -77.61328 -77.61328 c -14.7336,-22.81213 -37.30981,-40.5329 -65.38672,-54.68359 v -50.97461 a 151.03531,151.03531 0 0 1 43.51172,-65.3418 z m 32.11328,66.125 a 31.625,31.625 0 0 0 -31.625,31.625 31.625,31.625 0 0 0 31.625,31.625 31.625,31.625 0 0 0 31.625,-31.625 31.625,31.625 0 0 0 -31.625,-31.625 z m 134.75,0 a 31.625,31.625 0 0 0 -31.625,31.625 31.625,31.625 0 0 0 31.625,31.625 31.625,31.625 0 0 0 31.625,-31.625 31.625,31.625 0 0 0 -31.625,-31.625 z"
     style="opacity:1;fill:#000000;fill-opacity:1;fill-rule:nonzero;stroke:none;stroke-width:10.19558334;stroke-linecap:round;stroke-linejoin:miter;stroke-miterlimit:4;stroke-dasharray:none;stroke-dashoffset:130.69606018;stroke-opacity:1;paint-order:stroke fill markers" />
</svg>
