<?xml version="1.0" encoding="UTF-8" standalone="no"?>
<svg
   xmlns:dc="http://purl.org/dc/elements/1.1/"
   xmlns:cc="http://creativecommons.org/ns#"
   xmlns:rdf="http://www.w3.org/1999/02/22-rdf-syntax-ns#"
   xmlns:svg="http://www.w3.org/2000/svg"
   xmlns="http://www.w3.org/2000/svg"
   version="1.1"
   id="svg815"
   width="13"
   height="13"
   viewBox="0 0 13 13">
  <metadata
     id="metadata821">
    <rdf:RDF>
      <cc:Work
         rdf:about="">
        <dc:format>image/svg+xml</dc:format>
        <dc:type
           rdf:resource="http://purl.org/dc/dcmitype/StillImage" />
        <dc:title></dc:title>
      </cc:Work>
    </rdf:RDF>
  </metadata>
  <defs
     id="defs819" />
  <path
     style="opacity:1;fill:#93c623;fill-opacity:1;fill-rule:nonzero;stroke:none;stroke-width:0.36135727;stroke-linecap:round;stroke-linejoin:miter;stroke-miterlimit:4;stroke-dasharray:none;stroke-dashoffset:130.69606018;stroke-opacity:1;paint-order:stroke fill markers"
     d="M 7.86222,1.1544412 C 7.85275,1.2273672 7.7317986,2.0949144 7.3235211,2.0949144 v 2.123e-4 H 6.4933909 5.6632601 v -2.123e-4 c -0.4053168,0 -0.5273888,-0.8543111 -0.5384215,-0.9381887 A 6.0046771,6.0046771 0 0 0 0.9943295,4.6137569 V 1.4002544 c 0,-0.1166554 -0.093923,-0.2105784 -0.210579,-0.2105784 h -0.225669 c -0.1166554,0 -0.2105784,0.093923 -0.2105784,0.2105784 V 4.8729299 C 0.1406564,4.9817219 0,5.1981909 0,5.4490099 v 2.301549 c 0,0.360647 0.2904018,0.65098 0.6510489,0.65098 h 0.014813 A 6.0046771,6.0046771 0 0 0 6.4963662,13 6.0046771,6.0046771 0 0 0 12.327216,8.4015389 h 0.02173 c 0.360647,0 0.651049,-0.290333 0.651049,-0.65098 v -2.301549 c 0,-0.264858 -0.156914,-0.491242 -0.382946,-0.593108 V 1.4002544 c 0,-0.1166554 -0.09392,-0.2105784 -0.210578,-0.2105784 h -0.225669 c -0.116656,0 -0.210579,0.093923 -0.210579,0.2105784 V 4.5452949 A 6.0046771,6.0046771 0 0 0 7.862217,1.1544412 Z M 2.9738501,2.9713554 h 0.030736 c 0.8985106,0.8330227 1.9725744,1.5526185 3.4953813,1.5526185 1.5228075,0 2.5968715,-0.7195958 3.4953814,-1.5526185 h 0.030736 a 5.3530739,5.3530739 0 0 1 1.542165,2.3158785 v 1.80667 c -0.995116,0.501536 -1.7952745,1.129605 -2.3174706,1.938124 H 6.4999681 3.7491567 C 3.2269607,8.2235089 2.426803,7.5954399 1.4316855,7.0939039 v -1.80667 A 5.3530739,5.3530739 0 0 1 2.9738513,2.9713554 Z M 4.112026,5.3149929 a 1.1208701,1.1208701 0 0 0 -1.1208698,1.12087 1.1208701,1.1208701 0 0 0 1.1208698,1.12087 1.1208701,1.1208701 0 0 0 1.1208705,-1.12087 1.1208701,1.1208701 0 0 0 -1.1208705,-1.12087 z m 4.7758816,0 a 1.1208701,1.1208701 0 0 0 -1.1208699,1.12087 1.1208701,1.1208701 0 0 0 1.1208699,1.12087 1.1208701,1.1208701 0 0 0 1.1208694,-1.12087 1.1208701,1.1208701 0 0 0 -1.1208694,-1.12087 z"
     id="path4639" />
</svg>
